<svg width="25" height="24" viewBox="0 0 25 24" fill="none" xmlns="http://www.w3.org/2000/svg">
<g clip-path="url(#clip0_370_1146)">
<path d="M12.6902 23.838L0.699951 15.7837L12.6902 7.72925L17.2602 10.7998C19.011 11.9766 21.1192 12.4145 23.1951 12.0344L24.6999 11.7583L24.0002 13.1187C22.3939 16.2404 20.0057 18.9241 17.094 20.879L12.6902 23.838Z" fill="#40C4FF"/>
<path d="M12.6902 20.0761L0.699951 12.0218L12.6902 3.96729L17.2602 7.03786C19.011 8.21459 21.1192 8.65251 23.1951 8.27245L24.6999 7.99636L24.0002 9.35678C22.3939 12.4784 20.0057 15.1621 17.094 17.117L12.6902 20.0761Z" fill="#FFEE58"/>
<path d="M12.6902 16.3141L0.699951 8.2598L12.6902 0.205322L17.2602 3.2759C19.011 4.45263 21.1192 4.89054 23.1951 4.51049L24.6999 4.2344L24.0002 5.59482C22.3939 8.71646 20.0057 11.4002 17.094 13.355L12.6902 16.3141Z" fill="#FE9D58"/>
<path d="M6.6709 7.40039H8.17569V8.90519H6.6709V7.40039Z" fill="#F9873A"/>
<path d="M9.68042 5.89575H11.1852V7.40055H9.68042V5.89575Z" fill="#F9873A"/>
<path d="M11.9377 4.39087H13.4425V5.89567H11.9377V4.39087Z" fill="#F9873A"/>
<path d="M9.68042 8.90527H11.1852V10.4101H9.68042V8.90527Z" fill="#F9873A"/>
<path d="M11.9377 11.1624H13.4425V12.6672H11.9377V11.1624Z" fill="#F9873A"/>
<path d="M12.6902 7.40039H14.195V8.90519H12.6902V7.40039Z" fill="#F9873A"/>
<path d="M14.9473 5.89575H16.4521V7.40055H14.9473V5.89575Z" fill="#F9873A"/>
<path d="M14.9473 8.90527H16.4521V10.4101H14.9473V8.90527Z" fill="#F9873A"/>
<path d="M19.4617 5.89575H20.9665V7.40055H19.4617V5.89575Z" fill="white"/>
</g>
<defs>
<clipPath id="clip0_370_1146">
<rect width="24" height="24" fill="white" transform="translate(0.699951)"/>
</clipPath>
</defs>
</svg>
