<svg width="25" height="24" viewBox="0 0 25 24" fill="none" xmlns="http://www.w3.org/2000/svg">
<g clip-path="url(#clip0_370_3)">
<path d="M24.4374 9.20622C24.2803 8.72024 23.8493 8.37508 23.3393 8.32912L16.4123 7.70014L13.6731 1.2889C13.4712 0.819039 13.0112 0.514893 12.5001 0.514893C11.9891 0.514893 11.5291 0.819039 11.3271 1.29L8.58797 7.70014L1.65982 8.32912C1.15077 8.37618 0.720828 8.72024 0.562804 9.20622C0.40478 9.69219 0.550718 10.2252 0.935799 10.5612L6.17183 15.1533L4.62785 21.9545C4.51487 22.4546 4.70897 22.9715 5.12389 23.2715C5.34692 23.4326 5.60785 23.5146 5.87098 23.5146C6.09786 23.5146 6.3229 23.4535 6.52487 23.3326L12.5001 19.7614L18.4732 23.3326C18.9103 23.5956 19.4612 23.5716 19.8752 23.2715C20.2904 22.9706 20.4843 22.4535 20.3713 21.9545L18.8273 15.1533L24.0633 10.5621C24.4484 10.2252 24.5955 9.69311 24.4374 9.20622Z" fill="#FFC107"/>
</g>
<defs>
<clipPath id="clip0_370_3">
<rect width="24" height="24" fill="white" transform="translate(0.5)"/>
</clipPath>
</defs>
</svg>
