<svg width="40" height="41" viewBox="0 0 40 41" fill="none" xmlns="http://www.w3.org/2000/svg">
<g clip-path="url(#clip0_81_550)">
<path d="M4.23527 20.0078C4.23527 20.0078 5.81559 22.3295 9.12777 24.2946C9.12777 24.2946 6.72895 4.02102 22.3589 0.5C18.3544 15.197 27.4526 19.3417 30.7691 11.577C36.3076 18.9716 32.1024 25.423 32.1024 25.423C34.3734 25.7502 36.2811 23.2691 36.2811 23.2691C36.2981 23.5748 36.3076 23.8825 36.3076 24.1924C36.3077 33.1988 29.0065 40.5 20 40.5C10.9936 40.5 3.69238 33.1988 3.69238 24.1923C3.69238 22.7456 3.88176 21.3433 4.23527 20.0078Z" fill="#FF6536"/>
<path d="M36.2811 23.2691C36.2811 23.2691 34.3734 25.7502 32.1024 25.423C32.1024 25.423 36.3077 18.9716 30.7691 11.577C27.4527 19.3417 18.3545 15.197 22.3589 0.5C21.5218 0.688594 20.7368 0.925547 20 1.20453V40.5C29.0065 40.5 36.3077 33.1988 36.3077 24.1923C36.3077 23.8824 36.2981 23.5748 36.2811 23.2691Z" fill="#FF421D"/>
<path d="M12.8481 33.3481C12.8481 37.2979 16.0502 40.4999 20 40.4999C23.9499 40.4999 27.1519 37.2979 27.1519 33.3481C27.1519 31.2339 26.2346 29.3341 24.7763 28.0248C22.0111 31.7814 18.0706 26.0829 21.1416 21.9215C21.1416 21.9215 12.8481 22.9608 12.8481 33.3481Z" fill="#FBBF00"/>
<path d="M27.1519 33.3481C27.1519 31.2339 26.2346 29.3341 24.7762 28.0248C22.0111 31.7814 18.0706 26.0829 21.1416 21.9215C21.1416 21.9215 20.6909 21.9781 20 22.1962V40.4999C23.9498 40.4999 27.1519 37.2979 27.1519 33.3481Z" fill="#FFA900"/>
</g>
<defs>
<clipPath id="clip0_81_550">
<rect width="40" height="40" fill="white" transform="translate(0 0.5)"/>
</clipPath>
</defs>
</svg>
