<svg width="56" height="56" viewBox="0 0 56 56" fill="none" xmlns="http://www.w3.org/2000/svg">
<g clip-path="url(#clip0_248_9264)">
<path fill-rule="evenodd" clip-rule="evenodd" d="M28 0C43.464 0 56 12.536 56 28C56 43.464 43.464 56 28 56C12.536 56 0 43.464 0 28C0 12.536 12.536 0 28 0ZM32.5993 24.7384C32.4037 24.5436 32.1389 24.4343 31.8629 24.4343C31.5869 24.4343 31.3221 24.5436 31.1265 24.7384L26.8015 29.065L24.8594 27.1947C24.6605 27.0031 24.3936 26.8985 24.1176 26.9037C23.8415 26.9089 23.5788 27.0235 23.3872 27.2225C23.1957 27.4214 23.091 27.6882 23.0962 27.9643C23.1014 28.2404 23.2161 28.5031 23.415 28.6946L26.0922 31.273C26.2882 31.4629 26.5511 31.568 26.824 31.5656C27.0969 31.5632 27.358 31.4536 27.5507 31.2604L32.5993 26.2117C32.7942 26.0161 32.9036 25.7513 32.9036 25.4752C32.9036 25.1992 32.7942 24.9343 32.5993 24.7388V24.7384ZM28.0712 10.2271H27.9282C27.3153 10.2441 26.7322 10.495 26.2986 10.9285L24.1642 13.0632C24.1266 13.1063 24.0771 13.1372 24.0219 13.1522C23.9667 13.1672 23.9083 13.1656 23.854 13.1475L20.9377 12.3665C20.3216 12.2019 19.6654 12.2885 19.1131 12.6074C18.5609 12.9262 18.1577 13.4511 17.9922 14.0669L17.211 16.9825C17.1994 17.0386 17.1717 17.09 17.1312 17.1304C17.0907 17.1708 17.0392 17.1984 16.9832 17.2099L14.0673 17.991C13.4516 18.157 12.9269 18.5602 12.6081 19.1124C12.2893 19.6646 12.2023 20.3206 12.3664 20.9368L13.1481 23.8525C13.1661 23.9069 13.1679 23.9654 13.1531 24.0208C13.1383 24.0762 13.1076 24.126 13.0648 24.1642L10.9297 26.2989C10.4792 26.7501 10.2261 27.3616 10.2261 27.9992C10.2261 28.6369 10.4792 29.2484 10.9297 29.6996L13.0639 31.8342C13.1069 31.8723 13.1378 31.9221 13.1527 31.9775C13.1676 32.0329 13.166 32.0915 13.1479 32.146L12.3662 35.0617C12.202 35.6779 12.2889 36.334 12.6077 36.8863C12.9266 37.4385 13.4513 37.8418 14.067 38.0078L16.983 38.7889C17.039 38.8003 17.0905 38.828 17.131 38.8684C17.1715 38.9088 17.1992 38.9602 17.2108 39.0163L17.992 41.932C18.1574 42.5479 18.5606 43.0729 19.1129 43.3918C19.6653 43.7106 20.3216 43.7971 20.9377 43.6323L23.854 42.8513C23.9083 42.8335 23.9666 42.8319 24.0218 42.8469C24.0769 42.8619 24.1264 42.8927 24.1642 42.9356L26.2989 45.0703C26.7506 45.5205 27.3623 45.7733 28.0001 45.7733C28.6378 45.7733 29.2495 45.5205 29.7012 45.0703L31.834 42.9356C31.872 42.8925 31.9218 42.8616 31.9773 42.8466C32.0327 42.8316 32.0913 42.8332 32.1459 42.8513L35.0615 43.6323C35.6777 43.7973 36.3342 43.7108 36.8867 43.3919C37.4392 43.073 37.8425 42.5478 38.0078 41.9316L38.7889 39.0159C38.8004 38.96 38.8282 38.9086 38.8686 38.8682C38.909 38.8278 38.9604 38.8001 39.0164 38.7885L41.9335 38.0075C42.549 37.8413 43.0735 37.438 43.3922 36.8858C43.711 36.3337 43.7979 35.6778 43.634 35.0617L42.8514 32.146C42.8339 32.0914 42.8326 32.033 42.8475 31.9777C42.8625 31.9224 42.893 31.8726 42.9356 31.8342L45.0703 29.6996C45.5208 29.2484 45.7739 28.6369 45.7739 27.9992C45.7739 27.3616 45.5208 26.7501 45.0703 26.2989L42.9353 24.1642C42.8927 24.1259 42.8621 24.0761 42.8472 24.0208C42.8322 23.9655 42.8336 23.9071 42.851 23.8525L43.6336 20.9368C43.7976 20.3207 43.7106 19.6648 43.3919 19.1126C43.0732 18.5605 42.5487 18.1572 41.9332 17.991L39.016 17.2099C38.9601 17.1984 38.9087 17.1707 38.8683 17.1303C38.8278 17.0899 38.8001 17.0385 38.7885 16.9825L38.0078 14.0669C37.8424 13.451 37.4392 12.9259 36.8869 12.607C36.3345 12.2882 35.6781 12.2017 35.062 12.3665L32.1464 13.1475C32.0919 13.1656 32.0333 13.1672 31.9778 13.1522C31.9224 13.1372 31.8726 13.1063 31.8346 13.0632L29.7018 10.9285C29.2681 10.495 28.685 10.2441 28.0721 10.2271H28.0712ZM27.9989 35.7472C29.5313 35.7474 31.0294 35.293 32.3036 34.4417C33.5779 33.5904 34.571 32.3804 35.1575 30.9647C35.744 29.5489 35.8976 27.991 35.5987 26.488C35.2998 24.985 34.5619 23.6044 33.4783 22.5208C32.3948 21.4371 31.0142 20.6991 29.5112 20.4001C28.0082 20.1011 26.4503 20.2545 25.0345 20.841C23.6187 21.4274 22.4086 22.4204 21.5573 23.6946C20.7059 24.9688 20.2514 26.4668 20.2514 27.9992C20.2537 30.0533 21.0707 32.0227 22.5231 33.4752C23.9755 34.9278 25.9448 35.7448 27.9989 35.7472ZM27.9989 18.1675C26.0544 18.1675 24.1535 18.7441 22.5367 19.8245C20.9199 20.9048 19.6597 22.4403 18.9156 24.2368C18.1714 26.0333 17.9767 28.0101 18.3561 29.9173C18.7355 31.8245 19.6718 33.5763 21.0468 34.9513C22.4218 36.3263 24.1737 37.2627 26.0808 37.642C27.988 38.0214 29.9648 37.8267 31.7613 37.0826C33.5579 36.3384 35.0934 35.0783 36.1737 33.4614C37.254 31.8446 37.8306 29.9438 37.8306 27.9992C37.8278 25.3926 36.7911 22.8934 34.9479 21.0502C33.1047 19.207 30.6056 18.1703 27.9989 18.1675ZM43.5969 28.2267C43.6565 28.166 43.69 28.0843 43.69 27.9992C43.69 27.9141 43.6565 27.8324 43.5969 27.7717L41.4624 25.6375C41.1622 25.3399 40.9464 24.9679 40.8371 24.5595C40.7279 24.1511 40.7291 23.721 40.8406 23.3133L41.6217 20.3976C41.6327 20.3568 41.6354 20.3143 41.6297 20.2725C41.624 20.2307 41.6099 20.1905 41.5883 20.1542C41.5461 20.0802 41.4763 20.0259 41.3942 20.0032L38.4781 19.2221C38.0692 19.1149 37.6962 18.901 37.3972 18.6023C37.0981 18.3035 36.8839 17.9307 36.7764 17.5219L35.9953 14.6062C35.9723 14.5242 35.9182 14.4544 35.8446 14.4116C35.7709 14.3688 35.6835 14.3564 35.6009 14.377L32.6853 15.1594C32.2777 15.2711 31.8477 15.2722 31.4396 15.1626C31.0314 15.053 30.6598 14.8367 30.3629 14.5359L28.2283 12.4013C28.1669 12.3423 28.0851 12.3094 28.0001 12.3094C27.915 12.3094 27.8332 12.3423 27.7718 12.4013L25.6375 14.5359C25.3406 14.8367 24.969 15.053 24.5609 15.1626C24.1527 15.2722 23.7227 15.2711 23.3151 15.1594L20.3984 14.377C20.3158 14.3566 20.2285 14.369 20.1548 14.4118C20.0812 14.4546 20.0271 14.5242 20.0039 14.6062L19.2228 17.5219C19.1155 17.9307 18.9015 18.3036 18.6026 18.6024C18.3037 18.9011 17.9307 19.115 17.5219 19.2221L14.6059 20.0032C14.524 20.0261 14.4543 20.0802 14.4117 20.154C14.3692 20.2277 14.3572 20.3151 14.3783 20.3976L15.1593 23.3133C15.271 23.721 15.2723 24.1511 15.163 24.5595C15.0537 24.9678 14.8377 25.3398 14.5373 25.6372L12.4025 27.7717C12.343 27.8325 12.3098 27.9142 12.3098 27.9992C12.3098 28.0843 12.343 28.1659 12.4025 28.2267L14.5373 30.3613C14.8377 30.6587 15.0537 31.0306 15.163 31.439C15.2723 31.8474 15.271 32.2775 15.1593 32.6852L14.3783 35.6009C14.3572 35.6833 14.3692 35.7708 14.4117 35.8445C14.4543 35.9182 14.524 35.9724 14.6059 35.9953L17.5219 36.7764C17.9307 36.8834 18.3038 37.0973 18.6027 37.3961C18.9016 37.6949 19.1157 38.0679 19.2229 38.4767L20.0039 41.3924C20.0269 41.4746 20.0811 41.5445 20.1549 41.5873C20.2287 41.6301 20.3163 41.6423 20.399 41.6215L23.3149 40.8389C23.5215 40.784 23.7343 40.7561 23.948 40.7561C24.2623 40.756 24.5735 40.8184 24.8635 40.9397C25.1535 41.0609 25.4165 41.2386 25.6373 41.4623L27.7718 43.5969C27.8332 43.6558 27.915 43.6888 28.0001 43.6888C28.0851 43.6888 28.1669 43.6558 28.2283 43.5969L30.3625 41.4623C30.6593 41.1615 31.031 40.9452 31.4391 40.8356C31.8473 40.726 32.2773 40.7272 32.6849 40.8389L35.6005 41.6215C35.6831 41.642 35.7705 41.6296 35.8441 41.5869C35.9177 41.5441 35.9718 41.4744 35.9949 41.3924L36.7759 38.4767C36.8834 38.0678 37.0977 37.6949 37.3968 37.3961C37.6959 37.0973 38.0691 36.8834 38.4781 36.7764L41.3937 35.9953C41.4759 35.9726 41.5457 35.9183 41.5879 35.8443C41.6095 35.808 41.6235 35.7678 41.6293 35.726C41.635 35.6842 41.6323 35.6416 41.6212 35.6009L40.8406 32.6852C40.7292 32.2775 40.728 31.8474 40.8373 31.4391C40.9466 31.0308 41.1624 30.6588 41.4626 30.3613L43.5969 28.2267Z" fill="url(#paint0_linear_248_9264)"/>
</g>
<defs>
<linearGradient id="paint0_linear_248_9264" x1="28" y1="0" x2="28" y2="56" gradientUnits="userSpaceOnUse">
<stop offset="0.283654" stop-color="#D82479"/>
<stop offset="1" stop-color="#720036"/>
</linearGradient>
<clipPath id="clip0_248_9264">
<rect width="56" height="56" fill="white"/>
</clipPath>
</defs>
</svg>
